PathFileType	4	(X/Y/Z)	Kaydara																																																																																																																									
DataRate	CameraRate	NumFrames	NumMarkers	Units	OrigDataRate	OrigDataStartFrame	OrigNumFrames																																																																																																																					
30	30	9	41	mm	30	97	128																																																																																																																					
Frame#	Time	EMLA_LFHD			EMLA_RFHD			EMLA_LBHD			EMLA_RBHD			EMLA_LFTShould			EMLA_RFTShould			EMLA_LRRShould			EMLA_RRRShould			EMLA_T10			EMLA_STRN			EMLA_TRUN			EMLA_LSHO			EMLA_LUPA			EMLA_LELB			EMLA_LFRM			EMLA_LWRA			EMLA_LWRB			EMLA_LFIN			EMLA_RSHO			EMLA_RUPA			EMLA_RELB			EMLA_RFRM			EMLA_RWRA			EMLA_RWRB			EMLA_RFIN			EMLA_LFWT			EMLA_RFWT			EMLA_LBWT			EMLA_RBWT			EMLA_LTHI			EMLA_LKNE			EMLA_LSHN			EMLA_LANK			EMLA_LHEE			EMLA_LTOE			EMLA_RTHI			EMLA_RKNE			EMLA_RSHN			EMLA_RANK			EMLA_RHEE			EMLA_RTOE		
		X1	Y1	Z1	X2	Y2	Z2	X3	Y3	Z3	X4	Y4	Z4	X5	Y5	Z5	X6	Y6	Z6	X7	Y7	Z7	X8	Y8	Z8	X9	Y9	Z9	X10	Y10	Z10	X11	Y11	Z11	X12	Y12	Z12	X13	Y13	Z13	X14	Y14	Z14	X15	Y15	Z15	X16	Y16	Z16	X17	Y17	Z17	X18	Y18	Z18	X19	Y19	Z19	X20	Y20	Z20	X21	Y21	Z21	X22	Y22	Z22	X23	Y23	Z23	X24	Y24	Z24	X25	Y25	Z25	X26	Y26	Z26	X27	Y27	Z27	X28	Y28	Z28	X29	Y29	Z29	X30	Y30	Z30	X31	Y31	Z31	X32	Y32	Z32	X33	Y33	Z33	X34	Y34	Z34	X35	Y35	Z35	X36	Y36	Z36	X37	Y37	Z37	X38	Y38	Z38	X39	Y39	Z39	X40	Y40	Z40	X41	Y41	Z41
																																																																																																																												
97	3.21	206.79401	1573.01926	907.5	37.59025	1576.43448	927.03079	202.72867	1542.8598	759.80438	9.25429	1549.30603	778.90007	199.38078	1328.99597	874.31953	49.65192	1320.90256	890.34149	170.88152	1388.16116	733.29628	19.84963	1379.63715	747.31033	102.76937	1215.36415	677.67838	126.72901	1257.77344	916.70692	121.36536	1153.95737	929.91676	313.60508	1359.40414	802.01157	371.1293	1195.66147	723.62511	398.43952	1069.47571	675.87158	421.11023	950.82764	625.92152	399.6064	767.05124	648.69156	433.86536	793.76358	573.87157	455.28294	738.98521	610.26703	-74.02326	1367.70538	832.47528	-155.90154	1194.92943	884.01352	-202.1542	1063.18985	916.11053	-200.2879	972.68188	978.51181	-112.03987	926.39648	1156.21841	-162.13982	862.03743	1122.92847	-168.40113	880.78293	1185.60242	196.97985	917.17003	886.57814	-32.01904	917.82845	831.55785	221.08706	927.51259	685.77499	48.77534	951.00632	660.13901	258.11319	637.68341	821.89346	262.75518	489.72084	977.47444	240.60883	330.84572	1068.72116	238.47528	140.23807	1083.37425	167.72585	44.16481	1068.80249	218.56936	113.46476	1247.43515	21.74655	701.99875	596.45344	-14.89722	484.78088	592.07237	47.12348	268.17408	544.72759	30.89075	133.56695	421.68941	94.15609	101.88106	361.10275	51.4986	42.88638	545.37373
98	3.243	213.2955	1559.60449	971.67618	44.61465	1562.91428	994.65691	206.28193	1528.65723	824.2968	13.34003	1534.92676	847.23602	203.8447	1314.71619	939.64859	53.8818	1306.41953	956.76224	174.43125	1374.53506	799.42696	23.36271	1368.19519	814.24629	103.82113	1203.02696	742.9467	131.06611	1243.53531	982.09023	125.81334	1139.86679	995.79994	317.59829	1344.59976	865.8757	371.99867	1182.65343	782.13501	398.61713	1058.16223	731.19057	421.48197	942.35695	677.39769	402.56668	756.33636	690.3083	437.09526	790.93422	618.48465	457.23511	731.71883	648.0574	-69.05562	1356.52588	900.98015	-152.87837	1184.5829	951.96754	-201.47997	1053.48	983.21838	-197.36755	966.53229	1051.56227	-110.66968	938.33862	1232.7179	-155.25822	867.86545	1204.53926	-165.24422	892.56538	1264.76295	198.29668	904.63173	954.6846	-29.67628	904.89166	896.96182	226.99066	911.18446	754.33594	55.10008	936.21887	726.18614	260.05383	624.71981	896.29601	262.58972	478.95748	1049.3689	239.62603	326.93989	1150.09079	240.16312	138.47492	1176.16905	171.50141	39.41745	1164.64935	215.8563	118.87444	1341.39328	24.10567	693.80981	655.08858	-16.61741	480.1173	642.34978	45.25235	267.87971	574.6529	28.18937	147.44927	437.17197	90.76489	123.7876	373.80154	51.09285	42.47092	548.00835
99	3.277	221.0705	1552.08954	1037.45132	52.74267	1554.50974	1063.22739	211.85776	1520.15991	890.43633	19.29678	1525.41168	916.56387	210.26291	1305.85632	1007.93816	60.20369	1300.30884	1026.27235	179.99775	1365.13718	867.84355	29.45419	1360.22156	882.59438	107.54728	1193.34206	813.99117	137.18323	1236.18256	1051.51382	130.75856	1132.59926	1065.76195	323.11256	1333.90945	932.96036	375.3487	1172.56554	846.35033	400.67829	1049.31274	793.97125	422.67132	934.37454	738.6245	403.8768	747.43118	748.05092	438.40298	785.67322	677.99339	456.58356	723.94646	702.61726	-63.6275	1350.37201	969.17473	-148.72588	1177.65816	1016.14517	-197.88931	1044.43497	1042.23816	-192.68309	958.64929	1112.33551	-111.67428	941.25023	1296.36749	-148.24082	865.62752	1269.68727	-164.54563	892.67975	1327.9303	202.1674	899.74998	1027.69501	-26.35949	893.34557	972.68204	229.82443	907.76428	827.60033	57.19865	926.5625	801.86157	266.92879	624.39491	974.58794	265.66135	474.26891	1125.85579	238.92506	312.81061	1216.84364	233.26942	122.23597	1228.70193	162.18048	32.77904	1210.34241	207.75213	89.06241	1393.47519	27.82767	686.38947	732.29027	-20.51654	473.50685	711.26038	42.19845	268.61713	618.41251	25.92808	168.35022	465.31219	89.00747	156.04099	400.89611	51.23038	40.86713	552.22809
100	3.31	228.5371	1552.47269	1104.04907	60.38235	1552.73224	1130.86021	218.86971	1518.15292	957.6474	26.47848	1520.77057	984.90936	217.54841	1302.15012	1078.13919	67.09977	1299.39453	1098.28102	186.94302	1362.53265	938.04916	36.90461	1358.73093	953.52409	112.51768	1189.10301	887.2802	143.95571	1234.17526	1123.11539	136.35015	1130.95032	1138.73169	330.04478	1327.8653	1001.84937	380.64407	1166.4547	917.248	403.92586	1042.03079	863.79822	424.54536	926.81259	809.28513	406.80908	740.96016	822.63298	438.64391	777.63107	750.12894	455.53455	715.16708	773.97141	-57.78386	1349.75204	1040.40771	-143.70053	1173.4906	1076.45493	-192.66178	1038.67661	1094.13719	-187.77039	951.31912	1162.76184	-112.01138	933.30482	1348.71124	-144.2211	856.474	1319.42261	-163.73747	881.38687	1377.29477	208.55877	906.90796	1098.07022	-20.65299	883.1427	1051.79237	230.44725	911.53046	896.75095	53.9015	919.05556	877.12822	271.71951	631.95515	1048.46359	273.52564	485.40623	1201.89919	237.98351	315.73395	1280.07294	236.91353	126.9353	1264.56947	168.63796	42.547	1221.80382	199.21656	51.37816	1418.26279	32.83686	668.60909	818.41354	-28.80649	458.96385	802.28165	33.31186	266.86264	683.3699	23.00248	191.97351	514.68056	88.5706	192.25735	458.20503	50.31644	36.95034	560.29705
101	3.343	234.05607	1557.6445	1170.15495	66.00649	1555.69244	1196.01654	225.81707	1520.20737	1024.48593	33.21544	1520.22247	1050.78224	222.61972	1302.02911	1146.62086	73.61567	1302.80518	1167.45956	191.78692	1364.98962	1006.27548	40.30206	1363.91556	1024.97452	112.77109	1195.737	957.04597	149.47224	1236.9735	1192.40135	141.60994	1133.99773	1209.61945	334.81441	1328.32703	1070.41359	384.25404	1165.3672	990.90019	407.03205	1039.43573	938.01041	425.74787	921.1116	887.36969	408.32066	736.20743	911.65077	437.08649	768.30002	835.81146	455.18414	707.48398	862.99751	-52.82424	1354.52133	1115.12093	-138.65152	1174.87297	1135.80643	-186.10788	1038.4922	1140.03212	-182.32084	946.42471	1203.40378	-111.02198	914.9823	1389.5459	-142.05228	840.69649	1353.24738	-163.56153	861.08688	1412.49649	216.53704	918.59238	1164.00604	-11.847	877.92061	1125.18272	222.70735	920.16602	959.29054	46.83575	912.92282	947.24258	288.40845	644.69398	1114.10675	284.0119	492.20284	1264.08058	247.1006	312.06228	1320.93704	238.29029	123.20387	1281.66946	168.42722	46.86299	1227.65755	198.30751	42.70415	1425.8284	32.29827	641.46576	909.54597	-36.44746	437.51934	912.94724	27.54516	264.0695	772.91985	24.25762	217.74494	594.08176	93.86667	235.62765	549.77379	47.16014	52.12789	589.34742
102	3.377	236.45021	1566.77475	1234.97688	67.98445	1566.05576	1257.62642	230.90027	1528.7735	1089.57054	37.74342	1530.11688	1111.99783	224.18612	1311.99493	1210.53062	74.81574	1312.1933	1231.24039	194.65946	1373.1955	1069.69826	42.76831	1374.08859	1088.53233	112.97288	1203.12355	1020.32135	150.03292	1245.74806	1256.99471	141.03977	1142.83203	1273.49045	337.24995	1335.69855	1133.461	386.28674	1169.2276	1060.41504	409.69143	1040.84373	1012.59468	426.98967	917.29568	971.43974	407.84615	736.08574	1013.36464	434.57779	759.18938	934.23988	455.15205	702.89436	968.25478	-51.81704	1363.50937	1177.80548	-132.44837	1181.45874	1195.7576	-180.00017	1044.48891	1186.19522	-176.95072	945.70427	1237.42203	-107.80287	889.45549	1418.88672	-139.56682	821.45691	1372.26837	-161.63698	833.55904	1433.06549	220.30733	930.39566	1226.67824	-7.44359	885.18204	1190.8979	227.50874	930.31952	1023.22876	50.9627	917.16209	1010.37796	286.90493	649.95621	1158.34579	289.62297	486.88473	1298.1694	248.54563	306.04794	1343.78952	237.54948	123.84057	1288.97614	167.6873	48.52592	1228.47488	194.79183	41.73818	1427.47238	34.42101	618.76495	1004.04106	-40.96609	428.12004	1031.02806	27.02779	272.6733	881.08597	33.54934	251.54015	695.93483	108.81796	262.32058	666.58676	28.4044	84.92042	665.53558
103	3.41	235.11225	1584.17435	1298.43002	66.01545	1583.43124	1315.79468	234.02195	1547.34451	1152.60109	40.09	1548.82477	1169.11888	222.29017	1329.12476	1270.94276	71.91236	1329.84467	1289.26254	196.36786	1389.15192	1129.13696	44.34575	1389.7998	1145.0663	117.87995	1217.64587	1082.40334	146.96286	1263.93417	1317.25739	137.32244	1160.89966	1333.74115	337.971	1351.73096	1195.51636	387.15385	1181.12625	1128.56689	411.23081	1049.77188	1089.46152	427.01584	920.69069	1061.27831	403.82366	746.94542	1123.99338	430.56744	757.09976	1043.17284	453.54824	708.74596	1087.02232	-54.49663	1379.04114	1231.65428	-131.89395	1194.12155	1240.8242	-172.55981	1055.19165	1229.39346	-171.05724	952.08336	1265.62088	-103.5723	863.94707	1435.5632	-138.94491	807.24731	1377.87216	-158.39266	807.28531	1439.80499	226.91708	945.40909	1288.24646	-2.72989	904.93484	1256.02524	228.69854	949.42329	1084.69337	52.36603	932.6268	1073.70117	285.89411	661.52328	1198.34351	282.73306	487.55127	1324.60098	244.37592	303.64689	1356.45599	233.79475	124.422	1292.68768	165.53623	49.92267	1229.45641	191.85041	40.8236	1428.50708	37.61111	623.90617	1098.10486	-39.62906	441.24401	1147.19032	27.70528	284.65403	1001.092	36.34218	264.20847	817.7092	109.16887	273.5376	774.79668	31.60547	96.56675	805.5056
104	3.443	230.48012	1604.5372	1360.2092	60.68303	1602.87888	1371.43585	234.50521	1570.80231	1213.82629	39.83506	1571.53137	1223.54424	220.02956	1353.20618	1328.99597	69.63796	1352.45682	1344.90509	196.82322	1408.50754	1185.36911	45.26857	1407.78107	1198.75839	121.64391	1235.65735	1141.73676	144.88152	1287.6973	1374.96719	136.66256	1184.72481	1392.56454	337.51972	1375.29602	1255.85342	388.56644	1200.02045	1200.84976	412.02419	1066.02814	1170.28816	425.37018	932.42294	1155.91095	396.02062	770.07706	1239.73297	424.29989	765.44701	1159.27231	449.00608	728.37158	1212.33521	-56.31989	1397.69241	1282.39014	-132.02095	1209.24492	1281.28891	-163.79831	1070.5172	1267.17171	-165.26325	965.12909	1288.80737	-98.79678	844.6254	1439.41559	-140.22808	803.44971	1373.89786	-155.14122	790.19913	1435.3418	233.29241	960.81818	1348.72849	0.73359	928.19519	1319.69894	226.37997	968.36403	1145.22011	50.44998	954.02023	1137.57927	283.98674	676.27159	1235.69229	276.58575	489.93469	1339.25842	239.28856	304.59358	1363.00766	232.95694	126.387	1295.16434	165.82092	51.82605	1229.92462	190.6105	40.49479	1429.1478	34.67029	640.52315	1186.00624	-34.97187	459.25785	1262.71347	32.2767	291.49584	1129.71809	36.47704	255.44149	947.53036	107.84889	261.91614	899.02405	37.062	90.40306	961.37344
105	3.477	223.61179	1620.63293	1420.76248	53.55194	1617.51633	1426.51749	232.72997	1590.88669	1274.17198	37.93348	1589.66324	1277.19856	217.07474	1377.82303	1384.87732	68.19346	1373.62671	1398.96286	196.8194	1424.32999	1240.15434	46.56646	1421.9455	1251.43501	125.98216	1249.7438	1199.25858	143.39355	1309.93393	1431.05499	136.95093	1206.90804	1450.42023	336.46969	1398.20175	1314.18625	390.77187	1221.51917	1273.5434	413.69854	1083.53004	1253.08685	423.79856	946.48254	1254.11621	385.22934	798.05183	1356.8576	417.72095	780.98572	1279.11888	440.13386	753.66127	1339.23004	-57.01595	1412.69104	1333.32062	-126.42238	1225.22591	1328.88809	-156.20998	1084.99359	1303.7175	-160.22627	979.20013	1310.80444	-94.81994	831.83731	1437.08191	-140.82691	805.80963	1367.54654	-152.46513	780.31342	1425.56778	237.04931	972.27249	1406.92749	2.23925	948.58681	1383.06625	223.08109	983.79829	1205.48302	47.8672	971.20018	1200.88638	280.10685	690.06134	1268.24333	270.49799	493.35789	1347.76245	236.77311	308.41915	1365.38452	232.02629	130.85808	1296.63483	164.76429	56.13206	1232.16698	190.52792	40.43631	1431.07468	26.15083	657.79961	1267.64565	-30.10315	478.74577	1373.21579	39.66118	294.47226	1261.25908	38.29338	230.48054	1086.37802	108.90074	228.87419	1031.77902	41.3949	76.06369	1134.33243
